<svg xmlns="http://www.w3.org/2000/svg" viewBox="0 0 571.69 838.84"><defs><style>.cls-1{fill:#fff;}</style></defs><title>fire-logo</title><g id="Layer_2" data-name="Layer 2"><g id="Layer_1-2" data-name="Layer 1"><path class="cls-1" d="M144.29,242.73,277.67,127.32c4.5-3.89,8.18-11.94,8.18-17.89V5.82c0-5.95-3.67-7.61-8.16-3.71L82.11,172.43C28.72,219.65-.44,282.9,0,350.52S30.43,481,84.43,527.52L277.65,694c4.51,3.88,8.2,2.19,8.2-3.75V588c0-6-3.7-14-8.21-17.86l-78.8-67.79c-10.42-9-3.18-16.46-1.65-17.84l.27-.23h0l80.21-69.46c4.5-3.89,8.18-11.94,8.18-17.89V294.38c0-5.95-3.68-7.63-8.18-3.74L128.11,420.15h0c-7.79,6.19-12.63,1.35-14.51-1.34a134.21,134.21,0,0,1-19.75-68.9C93.59,309.79,111.5,271.73,144.29,242.73Z"/><path class="cls-1" d="M427.4,596.11,294,711.52c-4.5,3.89-8.17,11.94-8.17,17.89V833c0,5.94,3.66,7.61,8.15,3.71L489.58,666.41c53.39-47.22,82.55-110.47,82.11-178.09s-30.43-130.48-84.43-177L294,144.87c-4.51-3.88-8.19-2.19-8.19,3.75V250.87c0,5.95,3.69,14,8.2,17.86l78.8,67.79c10.42,9,3.18,16.46,1.65,17.84l-.27.23h0L294,424.05c-4.5,3.89-8.17,11.94-8.17,17.89V544.46c0,5.95,3.67,7.63,8.17,3.74L443.58,418.69h0c7.79-6.2,12.63-1.35,14.51,1.34a134.21,134.21,0,0,1,19.75,68.9C478.1,529.05,460.19,567.11,427.4,596.11Z"/></g></g></svg>