<svg height="11" viewBox="0 0 51 11" width="51" xmlns="http://www.w3.org/2000/svg"><g fill="#af7c58" fill-rule="evenodd" transform=""><path d="m20.3025 5.4457c0-3.236 2.446-5.446 5.524-5.446 2.399 0 3.741 1.263 4.483 2.573l-1.925.947c-.442-.852-1.389-1.532-2.558-1.532-1.83 0-3.22 1.469-3.22 3.458s1.39 3.457 3.22 3.457c1.169 0 2.116-.664 2.558-1.532l1.925.932c-.757 1.31-2.084 2.589-4.483 2.589-3.078 0-5.524-2.211-5.524-5.446"/><path d="m0 10.7013h9.423v-10.528h-9.423z"/><path d="m41.189 10.528h9.423v-10.528h-9.423z"/></g></svg>